<?xml version="1.0" encoding="utf-8"?>
<!-- Generator: Adobe Illustrator 28.0.0, SVG Export Plug-In . SVG Version: 6.00 Build 0)  -->
<svg version="1.1" id="Слой_1" xmlns="http://www.w3.org/2000/svg" xmlns:xlink="http://www.w3.org/1999/xlink" x="0px" y="0px"
	 viewBox="0 0 24 20" style="enable-background:new 0 0 24 20;" xml:space="preserve">
<style type="text/css">
	.st0{fill:#D7A152;}
</style>
<g>
	<g id="XMLID_00000089569719332014155980000011417425911429399967_">
		<g>
			<path class="st0" d="M24,17v2c0,0.6-0.4,1-1,1H1c-0.6,0-1-0.4-1-1v-2c0-0.6,0.4-1,1-1h22C23.6,16,24,16.4,24,17z"/>
			<path class="st0" d="M24,9v2c0,0.6-0.4,1-1,1H1c-0.6,0-1-0.4-1-1V9c0-0.6,0.4-1,1-1h22C23.6,8,24,8.4,24,9z"/>
			<path class="st0" d="M24,1v2c0,0.6-0.4,1-1,1H1C0.4,4,0,3.6,0,3V1c0-0.6,0.4-1,1-1h22C23.6,0,24,0.4,24,1z"/>
		</g>
		<g>
		</g>
	</g>
</g>
</svg>
